<svg width="1267" height="810" viewBox="0 0 1267 810" fill="none" xmlns="http://www.w3.org/2000/svg">
<rect x="200" y="810" width="810" height="823" transform="rotate(-90 200 810)" fill="#008037"/>
<g clip-path="url(#clip0_285_1403)">
<path d="M975 810L985.8 790.7C996.7 771.3 1018.3 732.7 1015 694.2C1011.7 655.7 983.3 617.3 966.7 578.8C950 540.3 945 501.7 947.5 463C950 424.3 960 385.7 960.8 347C961.7 308.3 953.3 269.7 951.7 231.2C950 192.7 955 154.3 950.2 115.8C945.3 77.3 930.7 38.7 923.3 19.3L916 0H1267V19.3C1267 38.7 1267 77.3 1267 115.8C1267 154.3 1267 192.7 1267 231.2C1267 269.7 1267 308.3 1267 347C1267 385.7 1267 424.3 1267 463C1267 501.7 1267 540.3 1267 578.8C1267 617.3 1267 655.7 1267 694.2C1267 732.7 1267 771.3 1267 790.7V810H975Z" fill="#008037"/>
<path d="M1039 810L1044 790.7C1049 771.3 1059 732.7 1055.8 694.2C1052.7 655.7 1036.3 617.3 1029.2 578.8C1022 540.3 1024 501.7 1026.7 463C1029.3 424.3 1032.7 385.7 1040 347C1047.3 308.3 1058.7 269.7 1057.3 231.2C1056 192.7 1042 154.3 1034.3 115.8C1026.7 77.3 1025.3 38.7 1024.7 19.3L1024 0H1267V19.3C1267 38.7 1267 77.3 1267 115.8C1267 154.3 1267 192.7 1267 231.2C1267 269.7 1267 308.3 1267 347C1267 385.7 1267 424.3 1267 463C1267 501.7 1267 540.3 1267 578.8C1267 617.3 1267 655.7 1267 694.2C1267 732.7 1267 771.3 1267 790.7V810H1039Z" fill="#40A062"/>
<path d="M1091 810L1094.2 790.7C1097.3 771.3 1103.7 732.7 1101.7 694.2C1099.7 655.7 1089.3 617.3 1080.5 578.8C1071.7 540.3 1064.3 501.7 1064.8 463C1065.3 424.3 1073.7 385.7 1086.2 347C1098.7 308.3 1115.3 269.7 1120.8 231.2C1126.3 192.7 1120.7 154.3 1110 115.8C1099.3 77.3 1083.7 38.7 1075.8 19.3L1068 0H1267V19.3C1267 38.7 1267 77.3 1267 115.8C1267 154.3 1267 192.7 1267 231.2C1267 269.7 1267 308.3 1267 347C1267 385.7 1267 424.3 1267 463C1267 501.7 1267 540.3 1267 578.8C1267 617.3 1267 655.7 1267 694.2C1267 732.7 1267 771.3 1267 790.7V810H1091Z" fill="#7FBF8D"/>
<path d="M1154 810L1158.5 790.7C1163 771.3 1172 732.7 1170.3 694.2C1168.7 655.7 1156.3 617.3 1143.8 578.8C1131.3 540.3 1118.7 501.7 1117.7 463C1116.7 424.3 1127.3 385.7 1135.8 347C1144.3 308.3 1150.7 269.7 1151 231.2C1151.3 192.7 1145.7 154.3 1146.3 115.8C1147 77.3 1154 38.7 1157.5 19.3L1161 0H1267V19.3C1267 38.7 1267 77.3 1267 115.8C1267 154.3 1267 192.7 1267 231.2C1267 269.7 1267 308.3 1267 347C1267 385.7 1267 424.3 1267 463C1267 501.7 1267 540.3 1267 578.8C1267 617.3 1267 655.7 1267 694.2C1267 732.7 1267 771.3 1267 790.7V810H1154Z" fill="#B7DBB3"/>
<path d="M1193 810L1189.5 790.7C1186 771.3 1179 732.7 1178.5 694.2C1178 655.7 1184 617.3 1188.7 578.8C1193.3 540.3 1196.7 501.7 1195 463C1193.3 424.3 1186.7 385.7 1189.8 347C1193 308.3 1206 269.7 1207.7 231.2C1209.3 192.7 1199.7 154.3 1196.7 115.8C1193.7 77.3 1197.3 38.7 1199.2 19.3L1201 0H1267V19.3C1267 38.7 1267 77.3 1267 115.8C1267 154.3 1267 192.7 1267 231.2C1267 269.7 1267 308.3 1267 347C1267 385.7 1267 424.3 1267 463C1267 501.7 1267 540.3 1267 578.8C1267 617.3 1267 655.7 1267 694.2C1267 732.7 1267 771.3 1267 790.7V810H1193Z" fill="#FEFEE3"/>
</g>
<path d="M292 0L281.2 19.3C270.3 38.7 248.7 77.3 252 115.8C255.3 154.3 283.7 192.7 300.3 231.2C317 269.7 322 308.3 319.5 347C317 385.7 307 424.3 306.2 463C305.3 501.7 313.7 540.3 315.3 578.8C317 617.3 312 655.7 316.8 694.2C321.7 732.7 336.3 771.3 343.7 790.7L351 810H0L0 790.7C0 771.3 0 732.7 0 694.2C0 655.7 0 617.3 0 578.8C0 540.3 0 501.7 0 463C0 424.3 0 385.7 0 347C0 308.3 0 269.7 0 231.2C0 192.7 0 154.3 0 115.8C0 77.3 0 38.7 0 19.3L0 0L292 0Z" fill="#008037"/>
<path d="M228 0L223 19.3C218 38.7 208 77.3 211.2 115.8C214.3 154.3 230.7 192.7 237.8 231.2C245 269.7 243 308.3 240.3 347C237.7 385.7 234.3 424.3 227 463C219.7 501.7 208.3 540.3 209.7 578.8C211 617.3 225 655.7 232.7 694.2C240.3 732.7 241.7 771.3 242.3 790.7L243 810H0L0 790.7C0 771.3 0 732.7 0 694.2C0 655.7 0 617.3 0 578.8C0 540.3 0 501.7 0 463C0 424.3 0 385.7 0 347C0 308.3 0 269.7 0 231.2C0 192.7 0 154.3 0 115.8C0 77.3 0 38.7 0 19.3L0 0L228 0Z" fill="#40A062"/>
<path d="M176 0L172.8 19.3C169.7 38.7 163.3 77.3 165.3 115.8C167.3 154.3 177.7 192.7 186.5 231.2C195.3 269.7 202.7 308.3 202.2 347C201.7 385.7 193.3 424.3 180.8 463C168.3 501.7 151.7 540.3 146.2 578.8C140.7 617.3 146.3 655.7 157 694.2C167.7 732.7 183.3 771.3 191.2 790.7L199 810H0L0 790.7C0 771.3 0 732.7 0 694.2C0 655.7 0 617.3 0 578.8C0 540.3 0 501.7 0 463C0 424.3 0 385.7 0 347C0 308.3 0 269.7 0 231.2C0 192.7 0 154.3 0 115.8C0 77.3 0 38.7 0 19.3L0 0L176 0Z" fill="#7FBF8D"/>
<path d="M113 0L108.5 19.3C104 38.7 95 77.3 96.7 115.8C98.3 154.3 110.7 192.7 123.2 231.2C135.7 269.7 148.3 308.3 149.3 347C150.3 385.7 139.7 424.3 131.2 463C122.7 501.7 116.3 540.3 116 578.8C115.7 617.3 121.3 655.7 120.7 694.2C120 732.7 113 771.3 109.5 790.7L106 810H0L0 790.7C0 771.3 0 732.7 0 694.2C0 655.7 0 617.3 0 578.8C0 540.3 0 501.7 0 463C0 424.3 0 385.7 0 347C0 308.3 0 269.7 0 231.2C0 192.7 0 154.3 0 115.8C0 77.3 0 38.7 0 19.3L0 0L113 0Z" fill="#B7DBB3"/>
<path d="M74 0L77.5 19.3C81 38.7 88 77.3 88.5 115.8C89 154.3 83 192.7 78.3 231.2C73.7 269.7 70.3 308.3 72 347C73.7 385.7 80.3 424.3 77.2 463C74 501.7 61 540.3 59.3 578.8C57.7 617.3 67.3 655.7 70.3 694.2C73.3 732.7 69.7 771.3 67.8 790.7L66 810H0L0 790.7C0 771.3 0 732.7 0 694.2C0 655.7 0 617.3 0 578.8C0 540.3 0 501.7 0 463C0 424.3 0 385.7 0 347C0 308.3 0 269.7 0 231.2C0 192.7 0 154.3 0 115.8C0 77.3 0 38.7 0 19.3L0 0L74 0Z" fill="#FEFEE3"/>
<defs>
<clipPath id="clip0_285_1403">
<rect width="351" height="810" fill="white" transform="matrix(-1 0 0 -1 1267 810)"/>
</clipPath>
</defs>
</svg>
