<svg width="100%" viewBox="0 0 1440 810" fill="none" xmlns="http://www.w3.org/2000/svg">
<g clip-path="url(#clip0_256_1336)">
<rect width="1440" height="810" fill="#FEFEE3"/>
<rect y="810" width="810" height="99" transform="rotate(-90 0 810)" fill="#008037"/>
<rect x="1343" y="810" width="810" height="97" transform="rotate(-90 1343 810)" fill="#008037"/>
<g clip-path="url(#clip1_256_1336)">
<path d="M1390 0L1379.2 19.3C1368.3 38.7 1346.7 77.3 1350 115.8C1353.3 154.3 1381.7 192.7 1398.3 231.2C1415 269.7 1420 308.3 1417.5 347C1415 385.7 1405 424.3 1404.2 463C1403.3 501.7 1411.7 540.3 1413.3 578.8C1415 617.3 1410 655.7 1414.8 694.2C1419.7 732.7 1434.3 771.3 1441.7 790.7L1449 810H1098V790.7C1098 771.3 1098 732.7 1098 694.2C1098 655.7 1098 617.3 1098 578.8C1098 540.3 1098 501.7 1098 463C1098 424.3 1098 385.7 1098 347C1098 308.3 1098 269.7 1098 231.2C1098 192.7 1098 154.3 1098 115.8C1098 77.3 1098 38.7 1098 19.3V0L1390 0Z" fill="#008037"/>
<path d="M1326 0L1321 19.3C1316 38.7 1306 77.3 1309.2 115.8C1312.3 154.3 1328.7 192.7 1335.8 231.2C1343 269.7 1341 308.3 1338.3 347C1335.7 385.7 1332.3 424.3 1325 463C1317.7 501.7 1306.3 540.3 1307.7 578.8C1309 617.3 1323 655.7 1330.7 694.2C1338.3 732.7 1339.7 771.3 1340.3 790.7L1341 810H1098V790.7C1098 771.3 1098 732.7 1098 694.2C1098 655.7 1098 617.3 1098 578.8C1098 540.3 1098 501.7 1098 463C1098 424.3 1098 385.7 1098 347C1098 308.3 1098 269.7 1098 231.2C1098 192.7 1098 154.3 1098 115.8C1098 77.3 1098 38.7 1098 19.3V0L1326 0Z" fill="#40A062"/>
<path d="M1274 0L1270.8 19.3C1267.7 38.7 1261.3 77.3 1263.3 115.8C1265.3 154.3 1275.7 192.7 1284.5 231.2C1293.3 269.7 1300.7 308.3 1300.2 347C1299.7 385.7 1291.3 424.3 1278.8 463C1266.3 501.7 1249.7 540.3 1244.2 578.8C1238.7 617.3 1244.3 655.7 1255 694.2C1265.7 732.7 1281.3 771.3 1289.2 790.7L1297 810H1098V790.7C1098 771.3 1098 732.7 1098 694.2C1098 655.7 1098 617.3 1098 578.8C1098 540.3 1098 501.7 1098 463C1098 424.3 1098 385.7 1098 347C1098 308.3 1098 269.7 1098 231.2C1098 192.7 1098 154.3 1098 115.8C1098 77.3 1098 38.7 1098 19.3V0L1274 0Z" fill="#7FBF8D"/>
<path d="M1211 0L1206.5 19.3C1202 38.7 1193 77.3 1194.7 115.8C1196.3 154.3 1208.7 192.7 1221.2 231.2C1233.7 269.7 1246.3 308.3 1247.3 347C1248.3 385.7 1237.7 424.3 1229.2 463C1220.7 501.7 1214.3 540.3 1214 578.8C1213.7 617.3 1219.3 655.7 1218.7 694.2C1218 732.7 1211 771.3 1207.5 790.7L1204 810H1098V790.7C1098 771.3 1098 732.7 1098 694.2C1098 655.7 1098 617.3 1098 578.8C1098 540.3 1098 501.7 1098 463C1098 424.3 1098 385.7 1098 347C1098 308.3 1098 269.7 1098 231.2C1098 192.7 1098 154.3 1098 115.8C1098 77.3 1098 38.7 1098 19.3V0L1211 0Z" fill="#B7DBB3"/>
<path d="M1172 0L1175.5 19.3C1179 38.7 1186 77.3 1186.5 115.8C1187 154.3 1181 192.7 1176.3 231.2C1171.7 269.7 1168.3 308.3 1170 347C1171.7 385.7 1178.3 424.3 1175.2 463C1172 501.7 1159 540.3 1157.3 578.8C1155.7 617.3 1165.3 655.7 1168.3 694.2C1171.3 732.7 1167.7 771.3 1165.8 790.7L1164 810H1098V790.7C1098 771.3 1098 732.7 1098 694.2C1098 655.7 1098 617.3 1098 578.8C1098 540.3 1098 501.7 1098 463C1098 424.3 1098 385.7 1098 347C1098 308.3 1098 269.7 1098 231.2C1098 192.7 1098 154.3 1098 115.8C1098 77.3 1098 38.7 1098 19.3V0L1172 0Z" fill="#FEFEE3"/>
</g>
<g clip-path="url(#clip2_256_1336)">
<path d="M50 810L60.8 790.7C71.7 771.3 93.3 732.7 90 694.2C86.7 655.7 58.3 617.3 41.7 578.8C25 540.3 20 501.7 22.5 463C25 424.3 35 385.7 35.8 347C36.7 308.3 28.3 269.7 26.7 231.2C25 192.7 30 154.3 25.2 115.8C20.3 77.3 5.69999 38.7 -1.70001 19.3L-9 0H342V19.3C342 38.7 342 77.3 342 115.8C342 154.3 342 192.7 342 231.2C342 269.7 342 308.3 342 347C342 385.7 342 424.3 342 463C342 501.7 342 540.3 342 578.8C342 617.3 342 655.7 342 694.2C342 732.7 342 771.3 342 790.7V810H50Z" fill="#008037"/>
<path d="M114 810L119 790.7C124 771.3 134 732.7 130.8 694.2C127.7 655.7 111.3 617.3 104.2 578.8C97 540.3 99 501.7 101.7 463C104.3 424.3 107.7 385.7 115 347C122.3 308.3 133.7 269.7 132.3 231.2C131 192.7 117 154.3 109.3 115.8C101.7 77.3 100.3 38.7 99.7 19.3L99 0H342V19.3C342 38.7 342 77.3 342 115.8C342 154.3 342 192.7 342 231.2C342 269.7 342 308.3 342 347C342 385.7 342 424.3 342 463C342 501.7 342 540.3 342 578.8C342 617.3 342 655.7 342 694.2C342 732.7 342 771.3 342 790.7V810H114Z" fill="#40A062"/>
<path d="M166 810L169.2 790.7C172.3 771.3 178.7 732.7 176.7 694.2C174.7 655.7 164.3 617.3 155.5 578.8C146.7 540.3 139.3 501.7 139.8 463C140.3 424.3 148.7 385.7 161.2 347C173.7 308.3 190.3 269.7 195.8 231.2C201.3 192.7 195.7 154.3 185 115.8C174.3 77.3 158.7 38.7 150.8 19.3L143 0H342V19.3C342 38.7 342 77.3 342 115.8C342 154.3 342 192.7 342 231.2C342 269.7 342 308.3 342 347C342 385.7 342 424.3 342 463C342 501.7 342 540.3 342 578.8C342 617.3 342 655.7 342 694.2C342 732.7 342 771.3 342 790.7V810H166Z" fill="#7FBF8D"/>
<path d="M229 810L233.5 790.7C238 771.3 247 732.7 245.3 694.2C243.7 655.7 231.3 617.3 218.8 578.8C206.3 540.3 193.7 501.7 192.7 463C191.7 424.3 202.3 385.7 210.8 347C219.3 308.3 225.7 269.7 226 231.2C226.3 192.7 220.7 154.3 221.3 115.8C222 77.3 229 38.7 232.5 19.3L236 0H342V19.3C342 38.7 342 77.3 342 115.8C342 154.3 342 192.7 342 231.2C342 269.7 342 308.3 342 347C342 385.7 342 424.3 342 463C342 501.7 342 540.3 342 578.8C342 617.3 342 655.7 342 694.2C342 732.7 342 771.3 342 790.7V810H229Z" fill="#B7DBB3"/>
<path d="M268 810L264.5 790.7C261 771.3 254 732.7 253.5 694.2C253 655.7 259 617.3 263.7 578.8C268.3 540.3 271.7 501.7 270 463C268.3 424.3 261.7 385.7 264.8 347C268 308.3 281 269.7 282.7 231.2C284.3 192.7 274.7 154.3 271.7 115.8C268.7 77.3 272.3 38.7 274.2 19.3L276 0H342V19.3C342 38.7 342 77.3 342 115.8C342 154.3 342 192.7 342 231.2C342 269.7 342 308.3 342 347C342 385.7 342 424.3 342 463C342 501.7 342 540.3 342 578.8C342 617.3 342 655.7 342 694.2C342 732.7 342 771.3 342 790.7V810H268Z" fill="#FEFEE3"/>
</g>
<path d="M298 -134H1146L1158.5 402L1146 944H298L288.5 402L298 -134Z" fill="#FEFEE3"/>
</g>
<defs>
<clipPath id="clip0_256_1336">
<rect width="1440" height="810" fill="white"/>
</clipPath>
<clipPath id="clip1_256_1336">
<rect width="342" height="810" fill="white" transform="translate(1098)"/>
</clipPath>
<clipPath id="clip2_256_1336">
<rect width="342" height="810" fill="white" transform="matrix(-1 0 0 -1 342 810)"/>
</clipPath>
</defs>
</svg>
