<svg width="353" height="809" viewBox="0 0 353 809" fill="none" xmlns="http://www.w3.org/2000/svg">
<g clip-path="url(#clip0_171_1385)">
<path d="M61 809L71.8 789.7C82.7 770.3 104.3 731.7 101 693.2C97.7 654.7 69.3 616.3 52.7 577.8C36 539.3 31 500.7 33.5 462C36 423.3 46 384.7 46.8 346C47.7 307.3 39.3 268.7 37.7 230.2C36 191.7 41 153.3 36.2 114.8C31.3 76.3 16.7 37.7 9.29999 18.3L2 -1H353V18.3C353 37.7 353 76.3 353 114.8C353 153.3 353 191.7 353 230.2C353 268.7 353 307.3 353 346C353 384.7 353 423.3 353 462C353 500.7 353 539.3 353 577.8C353 616.3 353 654.7 353 693.2C353 731.7 353 770.3 353 789.7V809H61Z" fill="#008037"/>
<path d="M125 809L130 789.7C135 770.3 145 731.7 141.8 693.2C138.7 654.7 122.3 616.3 115.2 577.8C108 539.3 110 500.7 112.7 462C115.3 423.3 118.7 384.7 126 346C133.3 307.3 144.7 268.7 143.3 230.2C142 191.7 128 153.3 120.3 114.8C112.7 76.3 111.3 37.7 110.7 18.3L110 -1H353V18.3C353 37.7 353 76.3 353 114.8C353 153.3 353 191.7 353 230.2C353 268.7 353 307.3 353 346C353 384.7 353 423.3 353 462C353 500.7 353 539.3 353 577.8C353 616.3 353 654.7 353 693.2C353 731.7 353 770.3 353 789.7V809H125Z" fill="#40A062"/>
<path d="M177 809L180.2 789.7C183.3 770.3 189.7 731.7 187.7 693.2C185.7 654.7 175.3 616.3 166.5 577.8C157.7 539.3 150.3 500.7 150.8 462C151.3 423.3 159.7 384.7 172.2 346C184.7 307.3 201.3 268.7 206.8 230.2C212.3 191.7 206.7 153.3 196 114.8C185.3 76.3 169.7 37.7 161.8 18.3L154 -1H353V18.3C353 37.7 353 76.3 353 114.8C353 153.3 353 191.7 353 230.2C353 268.7 353 307.3 353 346C353 384.7 353 423.3 353 462C353 500.7 353 539.3 353 577.8C353 616.3 353 654.7 353 693.2C353 731.7 353 770.3 353 789.7V809H177Z" fill="#7FBF8D"/>
<path d="M240 809L244.5 789.7C249 770.3 258 731.7 256.3 693.2C254.7 654.7 242.3 616.3 229.8 577.8C217.3 539.3 204.7 500.7 203.7 462C202.7 423.3 213.3 384.7 221.8 346C230.3 307.3 236.7 268.7 237 230.2C237.3 191.7 231.7 153.3 232.3 114.8C233 76.3 240 37.7 243.5 18.3L247 -1H353V18.3C353 37.7 353 76.3 353 114.8C353 153.3 353 191.7 353 230.2C353 268.7 353 307.3 353 346C353 384.7 353 423.3 353 462C353 500.7 353 539.3 353 577.8C353 616.3 353 654.7 353 693.2C353 731.7 353 770.3 353 789.7V809H240Z" fill="#B7DBB3"/>
<path d="M279 809L275.5 789.7C272 770.3 265 731.7 264.5 693.2C264 654.7 270 616.3 274.7 577.8C279.3 539.3 282.7 500.7 281 462C279.3 423.3 272.7 384.7 275.8 346C279 307.3 292 268.7 293.7 230.2C295.3 191.7 285.7 153.3 282.7 114.8C279.7 76.3 283.3 37.7 285.2 18.3L287 -1H353V18.3C353 37.7 353 76.3 353 114.8C353 153.3 353 191.7 353 230.2C353 268.7 353 307.3 353 346C353 384.7 353 423.3 353 462C353 500.7 353 539.3 353 577.8C353 616.3 353 654.7 353 693.2C353 731.7 353 770.3 353 789.7V809H279Z" fill="#FEFEE3"/>
</g>
<defs>
<clipPath id="clip0_171_1385">
<rect width="1440" height="810" fill="white" transform="matrix(-1 0 0 -1 353 809)"/>
</clipPath>
</defs>
</svg>
