<?xml version="1.0" standalone="no"?>
<!DOCTYPE svg PUBLIC "-//W3C//DTD SVG 20010904//EN"
 "http://www.w3.org/TR/2001/REC-SVG-20010904/DTD/svg10.dtd">
<svg version="1.0" xmlns="http://www.w3.org/2000/svg"
 width="2000.000000pt" height="688.000000pt" viewBox="0 0 2000.000000 688.000000"
 preserveAspectRatio="xMidYMid meet">

<g transform="translate(0.000000,688.000000) scale(0.100000,-0.100000)"
fill="#008037" stroke="none">
<path d="M9377 6155 c-4 -8 -18 -15 -32 -15 -25 0 -26 -2 -23 -47 3 -41 6 -48
25 -51 23 -3 26 -15 37 -169 3 -52 1 -63 -11 -63 -13 0 -15 -9 -9 -46 3 -26 6
-57 6 -70 0 -15 6 -24 15 -24 11 0 15 -11 15 -42 0 -24 3 -52 6 -64 l6 -21
-483 -7 c-431 -6 -484 -5 -491 8 -13 23 -376 24 -384 1 -5 -12 -27 -15 -109
-15 -123 0 -130 -4 -140 -90 -10 -87 -6 -90 132 -90 88 0 118 -3 129 -15 14
-13 123 -15 864 -15 741 0 850 2 864 15 8 8 25 15 38 15 51 0 61 19 53 98 -5
55 -11 75 -25 82 -10 6 -59 10 -109 10 -80 0 -91 2 -92 18 0 9 -15 150 -32
312 l-32 295 -106 3 c-88 2 -108 0 -112 -13z"/>
<path d="M8319 6024 c-15 -18 -26 -91 -35 -229 -9 -142 -45 -129 400 -133 266
-2 382 1 397 9 21 11 21 16 17 176 -3 148 -6 167 -23 179 -15 11 -87 14 -381
14 -321 0 -363 -2 -375 -16z"/>
<path d="M11690 5500 c-11 -11 -20 -25 -20 -31 0 -11 362 -889 378 -918 17
-30 75 -39 255 -40 176 -1 217 5 217 33 0 7 -81 184 -181 392 -100 209 -199
417 -221 464 -56 122 -52 120 -245 120 -150 0 -165 -2 -183 -20z"/>
<path d="M12805 5458 c-26 -15 -35 -28 -35 -55 0 -19 269 -500 322 -575 l19
-28 -24 0 c-55 0 -51 -20 34 -169 l81 -141 47 0 c47 0 49 -1 72 -46 l24 -46
205 6 c113 4 270 11 350 16 80 5 184 10 233 10 73 0 90 3 107 20 11 11 20 26
20 33 -1 34 -37 109 -84 172 -78 104 -116 158 -116 166 0 4 -58 90 -130 190
-71 101 -148 210 -170 241 -48 70 -74 84 -255 135 -271 78 -303 83 -500 83
-115 0 -187 -5 -200 -12z"/>
<path d="M10680 5445 c-12 -15 -3 -65 51 -259 13 -48 41 -56 189 -56 137 0
180 9 180 37 0 9 -18 75 -40 145 -28 87 -46 131 -60 138 -10 5 -84 10 -163 10
-117 0 -147 -3 -157 -15z"/>
<path d="M10214 5293 c-222 -4 -226 -5 -226 -65 0 -18 30 -225 66 -460 36
-235 66 -432 66 -438 0 -5 -8 -10 -18 -10 -10 0 -26 -6 -35 -12 -14 -12 -14
-17 -2 -45 l14 -33 234 0 c251 0 266 3 254 50 -5 19 0 20 102 20 140 0 155 9
148 89 -3 31 -50 241 -106 466 -81 327 -105 414 -122 428 -17 13 -37 17 -98
15 -42 -2 -167 -4 -277 -5z"/>
<path d="M9335 5201 c-47 -10 -55 -39 -55 -199 0 -165 8 -190 70 -222 35 -18
59 -20 237 -20 156 0 204 3 227 15 15 8 42 15 60 15 92 1 99 22 75 211 -25
189 -24 185 -60 198 -34 12 -500 14 -554 2z"/>
<path d="M6853 5159 c-18 -5 -35 -14 -39 -20 -3 -6 -39 -115 -79 -243 -47
-150 -70 -238 -65 -251 12 -33 49 -45 143 -45 79 0 87 -2 87 -19 0 -10 7 -22
16 -25 9 -3 108 -6 220 -6 l204 0 22 25 c20 24 27 25 121 25 98 0 99 0 131 33
31 31 34 41 69 243 40 226 40 247 -5 278 -20 14 -70 16 -408 15 -212 0 -399
-5 -417 -10z"/>
<path d="M10789 5044 c-10 -13 -10 -27 0 -77 24 -117 16 -112 173 -115 167 -3
168 -2 136 104 -31 104 -30 104 -173 104 -99 0 -125 -3 -136 -16z"/>
<path d="M5951 4917 c-32 -11 -38 -22 -107 -182 -91 -211 -93 -235 -23 -255
18 -6 160 -10 315 -10 356 0 327 -14 396 190 67 199 70 215 48 243 -18 22 -21
22 -307 24 -206 2 -298 -1 -322 -10z"/>
<path d="M8485 4831 c-149 -4 -227 -10 -242 -19 -26 -14 -73 -73 -73 -91 0 -6
-4 -19 -9 -29 -11 -19 -82 -681 -81 -753 0 -61 33 -110 85 -127 31 -10 143
-12 510 -10 568 4 543 -2 560 132 4 33 1 224 -5 425 -17 507 3 476 -309 477
-119 0 -315 -2 -436 -5z"/>
<path d="M5570 4770 c-17 -17 -33 -20 -124 -20 -122 0 -116 4 -181 -128 -34
-71 -43 -82 -65 -82 -34 0 -44 -8 -69 -58 -23 -46 -21 -62 10 -62 10 0 19 -2
19 -5 0 -3 -174 -352 -386 -776 -408 -816 -406 -811 -354 -839 10 -6 58 -10
107 -10 115 0 184 29 203 84 10 31 16 36 41 36 64 0 68 6 232 370 l84 185 450
3 c444 2 451 2 456 -18 5 -19 14 -20 154 -21 222 -1 236 0 253 20 14 16 53 18
509 25 279 4 490 3 487 -2 -10 -17 -107 -563 -101 -572 3 -6 24 -10 47 -10 35
0 40 -3 35 -20 -9 -33 15 -41 119 -38 95 3 98 4 104 28 5 22 12 25 56 28 37 2
53 8 62 23 11 17 139 930 197 1406 20 163 17 173 -46 173 -35 0 -39 3 -39 25
0 33 -26 45 -97 45 -68 0 -79 -6 -88 -42 -6 -25 -11 -27 -63 -30 -54 -3 -57
-4 -65 -35 -12 -39 -2 -83 18 -83 8 0 15 -3 15 -7 0 -5 -20 -116 -45 -248 -25
-132 -45 -250 -45 -262 l0 -23 -1124 0 -1124 0 142 308 141 309 39 14 c38 13
42 19 102 153 72 161 72 176 -1 176 -32 0 -51 -6 -65 -20z"/>
<path d="M10878 4739 c-26 -15 -23 -53 19 -212 51 -200 40 -191 255 -195 155
-3 174 -2 185 14 17 23 16 53 -1 106 -8 24 -29 90 -47 148 -47 153 -43 150
-236 150 -89 0 -166 -5 -175 -11z"/>
<path d="M4902 4713 c-17 -16 -263 -450 -308 -545 -28 -60 -14 -68 120 -68
134 0 130 -3 201 140 26 52 87 170 136 262 49 92 89 176 89 186 0 35 -21 42
-121 42 -78 0 -101 -3 -117 -17z"/>
<path d="M14323 4670 c-13 -5 -23 -17 -23 -27 0 -10 31 -62 70 -114 62 -85 75
-98 112 -108 56 -16 562 -11 578 5 19 19 1 59 -70 146 -46 57 -79 89 -101 97
-39 13 -533 14 -566 1z"/>
<path d="M15033 4673 c-26 -10 -11 -37 71 -137 96 -117 113 -126 240 -126 84
0 116 11 116 38 0 21 -150 201 -183 219 -22 12 -218 17 -244 6z"/>
<path d="M9364 4616 c-64 -29 -66 -77 -34 -767 11 -233 25 -543 31 -689 14
-305 20 -331 86 -349 48 -14 433 -14 467 -1 15 5 33 24 42 42 14 31 10 82 -75
851 -94 852 -97 866 -147 908 -25 20 -326 25 -370 5z"/>
<path d="M12759 4604 c-10 -13 -6 -30 32 -106 50 -103 70 -118 153 -118 83 0
88 17 35 122 -58 117 -60 118 -139 118 -49 0 -71 -4 -81 -16z"/>
<path d="M13202 4463 c-9 -3 -7 -15 10 -44 21 -38 24 -40 67 -37 24 2 46 8 48
13 1 6 -6 25 -17 43 -17 27 -25 32 -57 31 -21 0 -44 -3 -51 -6z"/>
<path d="M6941 4440 c-18 -4 -39 -14 -47 -21 -7 -8 -38 -104 -68 -213 -59
-215 -59 -226 -10 -265 25 -20 37 -21 260 -21 128 0 244 4 257 9 31 12 37 31
77 235 38 190 36 214 -22 256 l-41 30 -186 -1 c-102 -1 -201 -5 -220 -9z"/>
<path d="M5630 4421 c-58 -18 -70 -35 -155 -227 -47 -105 -85 -201 -85 -212 0
-42 47 -52 249 -52 162 0 189 3 209 18 23 18 172 384 172 423 0 10 -10 27 -22
39 -20 18 -34 20 -182 19 -89 0 -172 -4 -186 -8z"/>
<path d="M6121 4410 c-24 -11 -50 -28 -57 -38 -21 -28 -144 -356 -144 -384 0
-51 8 -53 351 -56 303 -3 319 -2 357 17 23 11 43 25 46 30 15 24 107 368 104
390 -6 51 -36 56 -338 59 -258 2 -278 1 -319 -18z"/>
<path d="M13443 4174 c-20 -10 -33 -24 -33 -35 0 -11 158 -298 352 -640 263
-465 360 -627 385 -646 64 -49 88 -52 386 -53 239 0 281 2 302 16 28 18 32 44
11 77 -93 152 -785 1212 -810 1241 -44 51 -71 55 -341 55 -182 1 -226 -2 -252
-15z"/>
<path d="M14102 4164 c-12 -8 -22 -24 -22 -36 0 -11 179 -297 398 -634 l397
-614 74 -37 75 -38 577 0 c571 0 578 0 606 21 22 17 29 30 31 66 3 44 0 49
-104 179 -524 654 -838 1038 -866 1061 -58 44 -112 48 -648 48 -432 0 -498 -2
-518 -16z"/>
<path d="M12523 4158 c-35 -17 -29 -54 31 -185 29 -65 151 -336 271 -603 119
-267 224 -493 234 -504 9 -10 34 -28 56 -40 39 -20 53 -21 461 -24 272 -2 430
1 447 7 40 15 50 52 30 104 -9 23 -140 263 -291 532 -151 270 -298 532 -326
582 -28 51 -56 93 -62 93 -7 0 -14 6 -17 14 -3 8 -23 20 -44 25 -52 15 -760
14 -790 -1z"/>
<path d="M3970 4074 c-30 -13 -58 -52 -199 -277 -91 -144 -211 -335 -268 -424
-57 -90 -103 -169 -103 -176 0 -32 23 -37 184 -37 143 1 164 3 184 20 33 27
512 845 512 874 0 13 -7 27 -16 30 -34 13 -258 5 -294 -10z"/>
<path d="M11279 4081 c-90 -28 -91 -42 -19 -297 213 -764 253 -899 272 -925
37 -50 59 -53 388 -57 327 -4 383 2 401 42 8 17 -34 140 -205 603 -118 320
-223 590 -234 601 -37 37 -76 42 -331 41 -135 0 -258 -4 -272 -8z"/>
<path d="M11969 4077 c-19 -14 -34 -54 -30 -82 1 -11 75 -213 163 -450 88
-236 180 -486 205 -553 66 -178 82 -192 231 -192 85 0 103 3 126 21 14 11 26
27 26 35 0 14 -72 194 -334 834 -113 277 -151 360 -173 377 -24 20 -40 23
-113 23 -51 -1 -91 -6 -101 -13z"/>
<path d="M3340 4024 c-243 -45 -307 -60 -362 -87 l-67 -32 -285 -375 c-157
-206 -285 -384 -286 -395 0 -43 15 -50 114 -53 l96 -4 -52 -74 c-65 -93 -62
-98 71 -102 125 -5 146 5 208 98 l46 70 99 0 c109 0 216 22 245 50 10 10 86
122 168 249 83 127 212 326 288 441 75 116 137 219 137 230 0 26 -30 40 -82
39 -24 -1 -176 -26 -338 -55z"/>
<path d="M10083 4060 c-12 -5 -29 -22 -37 -39 -15 -28 -11 -65 59 -579 41
-302 79 -561 84 -575 6 -15 25 -36 43 -47 29 -18 51 -20 199 -20 160 0 166 1
187 23 12 13 22 35 22 49 0 14 -17 119 -39 234 -21 115 -67 364 -102 554 -59
321 -66 347 -92 377 l-29 33 -137 -1 c-75 0 -146 -4 -158 -9z"/>
<path d="M10509 4063 c-10 -2 -20 -18 -23 -36 -8 -41 209 -1177 226 -1190 50
-35 75 -37 393 -37 201 0 323 4 336 10 11 6 25 25 32 42 12 29 1 73 -141 587
-95 344 -162 565 -174 581 -37 47 -60 50 -357 49 -152 -1 -283 -3 -292 -6z"/>
<path d="M2420 3891 c-85 -10 -172 -21 -192 -25 -34 -6 -71 -46 -428 -462
-361 -421 -390 -458 -390 -492 0 -68 -6 -67 257 -70 258 -4 291 1 355 47 20
15 128 144 239 287 111 142 265 339 341 437 152 194 163 218 124 264 -20 23
-32 27 -87 29 -35 1 -134 -6 -219 -15z"/>
<path d="M5213 2733 l-5213 -3 0 -184 0 -183 25 2 c14 2 25 0 25 -4 0 -4 -11
-18 -25 -31 l-25 -23 0 -200 0 -200 1823 6 c1002 4 5502 7 10000 7 l8177 0 0
410 0 410 -4787 -2 c-2634 -2 -7134 -4 -10000 -5z m-4985 -392 c-19 -25 -30
-30 -70 -30 -27 -1 -48 2 -48 6 0 4 10 17 22 30 17 18 32 23 71 23 l49 0 -24
-29z m192 -1 c-19 -26 -27 -30 -71 -30 -27 0 -49 3 -49 7 0 4 10 17 22 30 17
18 32 23 70 23 l49 0 -21 -30z m210 25 c0 -3 -10 -16 -22 -30 -17 -20 -31 -25
-70 -25 -26 0 -48 3 -48 7 0 4 10 17 22 30 17 18 32 23 70 23 26 0 48 -2 48
-5z m190 -2 c0 -4 -10 -17 -22 -30 -17 -18 -32 -23 -70 -23 -26 0 -48 3 -48 7
0 4 10 17 22 30 17 18 32 23 70 23 26 0 48 -3 48 -7z m190 0 c0 -4 -10 -17
-22 -30 -17 -18 -32 -23 -70 -23 -26 0 -48 3 -48 7 0 4 10 17 22 30 17 18 32
23 70 23 26 0 48 -3 48 -7z m190 0 c0 -4 -10 -17 -22 -30 -17 -18 -32 -23 -70
-23 -26 0 -48 2 -48 5 0 3 10 16 22 30 17 20 31 25 70 25 26 0 48 -3 48 -7z
m190 0 c0 -4 -10 -17 -22 -30 -17 -18 -32 -23 -70 -23 l-49 0 21 30 c19 26 27
30 71 30 27 0 49 -3 49 -7z m190 0 c0 -4 -10 -17 -22 -30 -16 -17 -32 -23 -65
-23 -48 0 -49 1 -27 35 14 21 24 25 65 25 27 0 49 -3 49 -7z m190 0 c0 -4 -10
-17 -22 -30 -16 -17 -32 -23 -65 -23 -48 0 -49 1 -27 35 14 21 24 25 65 25 27
0 49 -3 49 -7z m190 0 c-1 -5 -9 -18 -19 -30 -15 -18 -30 -23 -65 -23 -25 0
-46 2 -46 5 0 3 7 17 16 30 14 21 24 25 65 25 27 0 49 -3 49 -7z m190 2 c0 -3
-7 -17 -16 -30 -14 -21 -24 -25 -65 -25 -27 0 -49 2 -49 5 0 3 7 17 16 30 14
21 24 25 65 25 27 0 49 -2 49 -5z m190 -3 c0 -4 -7 -18 -16 -30 -12 -18 -25
-22 -65 -22 -27 0 -49 2 -49 5 0 3 7 17 16 30 14 21 24 25 65 25 27 0 49 -3
49 -8z m190 0 c0 -4 -7 -18 -16 -30 -12 -18 -25 -22 -65 -22 -27 0 -49 3 -49
6 0 3 8 16 18 29 14 20 26 24 65 25 26 0 47 -3 47 -8z m190 0 c0 -4 -7 -18
-16 -30 -12 -18 -25 -22 -65 -22 l-50 0 18 30 c15 27 23 30 65 30 26 0 48 -3
48 -8z m190 -4 c0 -27 -34 -48 -77 -48 -47 0 -54 11 -26 42 19 21 103 26 103
6z m183 -18 c-15 -27 -23 -30 -65 -30 -52 0 -56 4 -32 38 12 18 25 22 65 22
l50 0 -18 -30z m207 25 c0 -3 -7 -17 -16 -30 -14 -21 -24 -25 -65 -25 -53 0
-57 4 -33 38 12 18 25 22 65 22 27 0 49 -2 49 -5z m180 -6 c0 -34 -22 -49 -70
-49 -54 0 -58 4 -34 38 12 17 25 22 60 22 24 0 44 -5 44 -11z m200 6 c0 -3 -7
-17 -16 -30 -14 -21 -24 -25 -65 -25 -53 0 -57 4 -33 38 12 18 25 22 65 22 27
0 49 -2 49 -5z m190 0 c0 -3 -7 -17 -16 -30 -14 -21 -24 -25 -65 -25 -27 0
-49 2 -49 5 0 3 7 17 16 30 14 21 24 25 65 25 27 0 49 -2 49 -5z m190 -3 c0
-4 -7 -18 -16 -30 -12 -17 -25 -22 -58 -22 -53 0 -59 6 -39 36 13 20 24 24 64
24 27 0 49 -3 49 -8z m190 0 c0 -4 -7 -18 -16 -30 -12 -17 -25 -22 -60 -22
-45 0 -52 7 -34 41 8 15 22 19 60 19 28 0 50 -3 50 -8z m190 3 c0 -2 -5 -16
-12 -30 -10 -22 -17 -25 -60 -25 -50 0 -56 7 -38 41 8 15 22 19 60 19 28 0 50
-2 50 -5z m190 1 c0 -3 -4 -16 -10 -30 -8 -23 -15 -26 -60 -26 -52 0 -58 6
-40 41 8 15 22 19 60 19 28 0 50 -2 50 -4z m190 -7 c0 -34 -22 -49 -70 -49
-56 0 -55 -1 -38 35 10 22 17 25 60 25 27 0 48 -5 48 -11z m190 0 c0 -34 -22
-49 -70 -49 -56 0 -55 -1 -38 35 10 22 17 25 60 25 27 0 48 -5 48 -11z m190 0
c0 -32 -22 -49 -64 -49 -52 0 -58 5 -44 36 10 21 18 24 60 24 27 0 48 -5 48
-11z m190 0 c0 -32 -22 -49 -64 -49 -52 0 -58 5 -44 36 10 21 18 24 60 24 27
0 48 -5 48 -11z m190 -7 c0 -29 -21 -42 -67 -42 -44 0 -51 8 -37 44 4 12 20
16 55 16 41 0 49 -3 49 -18z m200 13 c0 -2 -5 -16 -12 -30 -10 -22 -17 -25
-60 -25 -50 0 -51 1 -42 38 6 19 13 22 60 22 30 0 54 -2 54 -5z m190 1 c0 -3
-4 -16 -10 -30 -8 -23 -15 -26 -60 -26 -52 0 -58 6 -40 41 8 15 22 19 60 19
28 0 50 -2 50 -4z m189 -3 c-3 -34 -18 -45 -62 -48 -53 -3 -58 1 -46 33 7 19
16 22 59 22 27 0 50 -3 49 -7z m191 -5 c-1 -29 -19 -41 -64 -41 -46 0 -51 4
-42 36 3 13 15 17 55 17 34 0 51 -4 51 -12z m190 0 c0 -28 -19 -41 -64 -42
-40 -1 -46 2 -46 20 0 30 8 34 62 34 32 0 48 -4 48 -12z m190 -5 c0 -30 -13
-38 -63 -38 -47 0 -54 6 -41 39 4 12 20 16 55 16 40 0 49 -3 49 -17z m188 -5
c-3 -20 -11 -24 -55 -28 -54 -6 -60 -1 -47 34 4 12 20 16 56 16 46 0 49 -2 46
-22z m190 -5 c-3 -26 -5 -27 -53 -24 -59 3 -59 3 -50 30 5 18 15 21 56 21 49
0 50 -1 47 -27z m190 1 c-3 -25 -6 -27 -53 -27 -31 0 -50 4 -49 12 1 6 2 18 3
26 1 11 14 15 52 15 49 0 50 -1 47 -26z m195 19 c3 -5 1 -17 -2 -27 -6 -15
-17 -19 -54 -19 -26 0 -47 3 -47 7 0 3 0 15 0 26 0 17 7 20 49 20 28 0 52 -3
54 -7z m189 1 c3 -3 4 -13 1 -24 -4 -14 -16 -19 -54 -22 -48 -3 -49 -2 -49 25
0 26 2 27 48 27 27 0 51 -3 54 -6z m198 -6 c0 -26 -16 -36 -62 -39 -47 -4 -48
-3 -48 23 0 27 2 28 55 28 37 0 55 -4 55 -12z m188 -15 c-2 -16 -6 -27 -10
-25 -5 1 -28 2 -53 2 -37 0 -45 3 -45 18 0 28 9 32 62 32 48 0 49 -1 46 -27z
m190 0 c-2 -16 -6 -27 -10 -25 -5 1 -28 2 -53 2 -37 0 -45 3 -45 18 0 28 9 32
62 32 48 0 49 -1 46 -27z m192 2 c0 -24 -3 -25 -56 -25 -47 0 -55 3 -50 16 3
9 6 20 6 25 0 5 23 9 50 9 47 0 50 -2 50 -25z m190 0 c0 -23 -3 -25 -50 -25
-47 0 -50 2 -50 25 0 23 3 25 50 25 47 0 50 -2 50 -25z m190 0 c0 -23 -3 -25
-50 -25 -47 0 -50 2 -50 25 0 23 3 25 50 25 47 0 50 -2 50 -25z m190 0 c0 -23
-3 -25 -50 -25 -47 0 -50 2 -50 25 0 23 3 25 50 25 47 0 50 -2 50 -25z m198
-2 c3 -22 0 -23 -52 -23 -53 0 -56 1 -56 26 0 24 2 25 53 22 45 -3 52 -6 55
-25z m192 2 c0 -24 -3 -25 -55 -25 -52 0 -55 1 -55 25 0 24 3 25 55 25 52 0
55 -1 55 -25z m190 0 c0 -24 -3 -25 -55 -25 -52 0 -55 1 -55 25 0 24 3 25 55
25 52 0 55 -1 55 -25z m190 0 c0 -23 -3 -25 -50 -25 -27 0 -50 4 -50 9 0 5 -3
16 -6 25 -5 13 3 16 50 16 53 0 56 -1 56 -25z m192 0 c5 -24 3 -25 -48 -25
-51 0 -54 1 -54 25 0 23 3 25 49 25 44 0 49 -2 53 -25z m188 16 c0 -5 3 -16 6
-25 5 -13 -3 -16 -50 -16 -53 0 -56 1 -56 25 0 23 3 25 50 25 28 0 50 -4 50
-9z m190 0 c0 -5 3 -16 6 -25 5 -13 -3 -16 -50 -16 -53 0 -56 1 -56 25 0 23 3
25 50 25 28 0 50 -4 50 -9z m190 0 c0 -5 3 -16 6 -25 5 -13 -3 -16 -50 -16
-53 0 -56 1 -56 25 0 23 3 25 50 25 28 0 50 -4 50 -9z m198 -19 c3 -22 1 -23
-50 -20 -47 3 -53 6 -56 26 -3 22 -1 23 50 20 47 -3 53 -6 56 -26z m190 1 c3
-21 0 -23 -46 -23 -36 0 -52 4 -56 16 -12 31 -6 35 47 32 45 -3 52 -6 55 -25z
m194 2 c5 -24 3 -25 -48 -25 -30 0 -54 4 -54 9 0 5 -3 16 -6 25 -5 13 3 16 49
16 50 0 55 -2 59 -25z m188 16 c0 -5 3 -16 6 -25 5 -13 -3 -16 -50 -16 -31 0
-56 4 -56 9 0 5 -3 16 -6 25 -5 13 3 16 50 16 31 0 56 -4 56 -9z m190 0 c0 -5
3 -16 6 -25 5 -13 -3 -16 -50 -16 -53 0 -56 1 -56 25 0 23 3 25 50 25 28 0 50
-4 50 -9z m194 -7 c12 -31 6 -35 -46 -32 -46 3 -53 6 -56 26 -3 20 0 22 46 22
36 0 52 -4 56 -16z m197 -11 c8 -22 6 -23 -45 -23 -40 0 -55 4 -60 16 -12 31
-6 35 45 32 43 -2 53 -7 60 -25z m190 0 c8 -22 6 -23 -46 -23 -30 0 -55 4 -55
9 0 5 -3 17 -6 26 -6 14 1 16 46 13 44 -2 54 -7 61 -25z m190 0 c8 -22 6 -23
-46 -23 -30 0 -55 4 -55 9 0 5 -3 17 -6 26 -6 14 1 16 46 13 44 -2 54 -7 61
-25z m189 18 c0 -5 3 -16 6 -25 10 -26 -92 -23 -106 3 -15 30 -14 31 45 31 30
0 55 -4 55 -9z m194 -7 c12 -31 6 -35 -45 -32 -43 2 -53 7 -60 26 -8 21 -6 22
45 22 40 0 55 -4 60 -16z m194 -9 c12 -25 11 -25 -42 -25 -47 0 -54 3 -64 25
-12 25 -11 25 42 25 47 0 54 -3 64 -25z m193 -2 c8 -22 6 -23 -45 -23 -40 0
-55 4 -60 16 -12 31 -6 35 45 32 43 -2 53 -7 60 -25z m189 8 c15 -30 14 -31
-40 -31 -38 0 -52 4 -60 19 -15 30 -14 31 40 31 38 0 52 -4 60 -19z m190 0
c15 -30 14 -31 -40 -31 -38 0 -52 4 -60 19 -15 30 -14 31 40 31 38 0 52 -4 60
-19z m194 -6 l16 -25 -54 0 c-44 0 -57 4 -66 19 -15 30 -14 31 39 31 41 0 51
-4 65 -25z m190 0 l16 -25 -53 0 c-48 0 -55 3 -65 25 -11 25 -11 25 37 25 41
0 51 -4 65 -25z m194 0 c12 -25 11 -25 -42 -25 -47 0 -54 3 -64 25 -12 25 -11
25 42 25 47 0 54 -3 64 -25z m188 8 c22 -29 16 -34 -37 -31 -41 2 -55 8 -67
26 -14 22 -14 22 38 22 39 0 56 -5 66 -17z m194 -2 c15 -30 14 -31 -40 -31
-38 0 -52 4 -60 19 -15 30 -14 31 40 31 38 0 52 -4 60 -19z m194 -6 l16 -25
-54 0 c-44 0 -57 4 -66 19 -15 30 -14 31 39 31 41 0 51 -4 65 -25z m191 3 c15
-23 15 -23 -36 -26 -40 -2 -54 1 -65 15 -22 29 -17 33 35 33 40 0 53 -4 66
-22z m191 5 c22 -29 16 -34 -37 -31 -41 2 -55 8 -67 26 -14 22 -14 22 38 22
39 0 56 -5 66 -17z m190 0 c21 -29 17 -33 -35 -33 -41 0 -51 4 -65 25 l-16 25
51 0 c38 0 55 -5 65 -17z m198 -8 l16 -25 -54 0 c-46 0 -56 3 -70 25 l-16 25
54 0 c46 0 56 -3 70 -25z m190 0 l16 -25 -51 0 c-38 0 -55 5 -65 18 -21 28
-17 32 35 32 41 0 51 -4 65 -25z m191 3 c15 -23 15 -23 -36 -26 -40 -2 -54 1
-65 15 -22 29 -17 33 35 33 40 0 53 -4 66 -22z m187 5 c28 -25 22 -33 -29 -33
-44 0 -83 20 -83 42 0 15 93 9 112 -9z m201 -8 l18 -25 -54 0 c-47 0 -57 3
-71 25 l-16 25 52 0 c45 -1 56 -5 71 -25z m190 0 l18 -25 -53 0 c-45 1 -56 5
-71 25 l-18 25 53 0 c45 -1 56 -5 71 -25z m192 3 c15 -23 15 -23 -31 -26 -40
-3 -51 1 -73 22 l-26 26 57 0 c48 0 59 -4 73 -22z m187 5 c28 -25 22 -33 -29
-33 -44 0 -83 20 -83 42 0 15 93 9 112 -9z m199 -9 l24 -25 -59 3 c-48 2 -61
7 -74 26 -14 22 -14 22 35 22 40 0 54 -5 74 -26z m189 1 l23 -25 -54 0 c-46 1
-57 4 -72 25 l-18 25 49 0 c39 0 53 -5 72 -25z m190 0 l23 -25 -50 0 c-40 0
-54 5 -73 25 l-23 25 50 0 c40 0 54 -5 73 -25z m194 0 l16 -25 -48 0 c-39 0
-53 5 -72 25 l-23 25 55 0 c48 0 58 -3 72 -25z m196 0 l23 -25 -55 0 c-45 0
-58 4 -78 25 l-23 25 55 0 c45 0 58 -4 78 -25z m190 0 l23 -25 -53 0 c-36 0
-59 5 -72 17 -28 26 -22 33 30 33 39 0 53 -5 72 -25z m190 0 l23 -25 -50 0
c-40 0 -54 5 -73 25 l-23 25 50 0 c40 0 54 -5 73 -25z m193 5 c9 -11 17 -22
17 -25 0 -3 -22 -5 -48 -5 -39 0 -53 5 -72 25 l-23 25 54 0 c42 0 58 -5 72
-20z m197 -5 l23 -25 -55 0 c-45 0 -58 4 -78 25 l-23 25 55 0 c45 0 58 -4 78
-25z m190 0 l23 -25 -55 0 c-45 0 -58 4 -78 25 l-23 25 55 0 c45 0 58 -4 78
-25z m190 0 l23 -25 -50 0 c-40 0 -54 5 -73 25 l-23 25 50 0 c40 0 54 -5 73
-25z m190 0 l23 -25 -50 0 c-40 0 -54 5 -73 25 l-23 25 50 0 c40 0 54 -5 73
-25z m195 0 l30 -24 -56 -1 c-47 0 -59 4 -79 25 l-23 25 49 0 c37 0 56 -6 79
-25z m195 0 l23 -25 -55 0 c-45 0 -58 4 -78 25 l-23 25 55 0 c45 0 58 -4 78
-25z m190 0 l23 -25 -49 0 c-37 1 -56 7 -79 25 l-30 25 56 0 c46 0 59 -4 79
-25z m195 0 l30 -25 -54 0 c-42 0 -59 5 -83 25 l-30 25 54 0 c41 -1 60 -6 83
-25z m190 0 l30 -24 -56 -1 c-47 0 -59 4 -79 25 l-23 25 49 0 c37 0 56 -6 79
-25z"/>
<path d="M5713 1859 c-81 -9 -117 -28 -139 -72 -9 -16 -94 -268 -191 -560
-171 -520 -175 -531 -163 -573 7 -24 20 -50 30 -59 50 -45 -31 -44 2298 -45
2201 0 2202 0 2243 20 58 30 79 70 79 155 0 108 -78 1033 -89 1053 -16 30 -65
69 -100 81 -41 13 -3851 14 -3968 0z"/>
<path d="M3922 1834 c-66 -17 -101 -36 -128 -66 -12 -12 -128 -234 -259 -493
-229 -453 -238 -472 -239 -530 l-1 -60 40 -20 c38 -19 64 -20 612 -23 631 -4
639 -3 729 59 81 56 96 84 254 510 83 222 159 424 168 449 29 73 5 142 -61
174 -31 14 -91 16 -549 15 -410 0 -524 -3 -566 -15z"/>
<path d="M13010 1838 c-55 -16 -63 -26 -57 -79 8 -62 411 -1096 440 -1127 12
-14 42 -34 67 -46 l45 -21 2898 -3 c2672 -2 2901 -1 2933 14 91 43 74 80 -155
327 -102 111 -319 346 -480 522 -162 176 -309 333 -327 348 -18 15 -55 38 -81
50 l-48 22 -2600 2 c-1711 1 -2612 -2 -2635 -9z"/>
</g>
</svg>
