<?xml version="1.0" standalone="no"?>
<!DOCTYPE svg PUBLIC "-//W3C//DTD SVG 20010904//EN"
 "http://www.w3.org/TR/2001/REC-SVG-20010904/DTD/svg10.dtd">
<svg version="1.0" xmlns="http://www.w3.org/2000/svg"
 width="2000.000000pt" height="688.000000pt" viewBox="0 0 2000.000000 688.000000"
 preserveAspectRatio="xMidYMid meet">

<g transform="translate(0.000000,688.000000) scale(0.100000,-0.100000)"
fill="#000000" stroke="none">
<path d="M9529 5415 c-28 -15 -59 -70 -59 -105 0 -28 10 -46 69 -124 l49 -64
56 76 c48 65 56 82 56 120 0 37 -6 50 -34 78 -27 27 -42 34 -72 34 -22 -1 -51
-7 -65 -15z m103 -62 c39 -35 11 -103 -43 -103 -30 0 -59 31 -59 64 0 48 64
73 102 39z"/>
<path d="M13527 5089 c-20 -12 -47 -61 -47 -87 0 -18 86 -149 96 -145 3 1 25
28 50 59 55 71 59 111 15 155 -31 31 -79 38 -114 18z m75 -56 c34 -31 14 -89
-29 -81 -9 2 -24 15 -32 30 -14 24 -14 28 3 47 23 25 34 26 58 4z"/>
<path d="M14659 4902 c-50 -26 -74 -65 -74 -121 0 -42 6 -56 46 -107 26 -33
55 -73 66 -91 l19 -32 67 92 c59 81 67 97 67 137 0 103 -101 167 -191 122z
m105 -91 c32 -35 4 -101 -42 -101 -36 0 -62 27 -62 66 0 52 68 75 104 35z"/>
<path d="M15204 4836 c-49 -49 -48 -101 5 -170 21 -28 46 -63 56 -78 l17 -28
59 82 c63 87 71 116 44 168 -21 42 -53 60 -103 60 -37 0 -50 -6 -78 -34z m114
-48 c27 -27 3 -88 -34 -88 -18 0 -54 36 -54 54 0 37 61 61 88 34z"/>
<path d="M11014 4841 c-36 -22 -64 -75 -64 -124 0 -27 14 -53 63 -118 34 -46
66 -84 72 -84 5 0 36 35 68 78 66 88 78 130 54 190 -30 70 -126 99 -193 58z
m108 -78 c20 -18 23 -54 8 -84 -15 -28 -74 -26 -94 3 -22 31 -20 54 6 78 26
24 55 26 80 3z"/>
<path d="M12855 4771 c-27 -12 -51 -41 -59 -73 -5 -21 3 -41 40 -95 26 -37 48
-69 49 -71 3 -4 68 86 85 117 19 37 4 89 -33 111 -34 21 -51 23 -82 11z m59
-57 c32 -31 4 -80 -37 -65 -27 10 -33 43 -12 65 20 20 29 20 49 0z"/>
<path d="M13225 4698 c-61 -33 -62 -96 -3 -176 54 -73 50 -69 55 -56 2 6 22
35 43 65 57 75 54 135 -7 167 -27 15 -62 15 -88 0z m75 -58 c24 -24 24 -30 7
-54 -9 -12 -23 -17 -42 -14 -25 2 -31 8 -33 33 -3 19 2 33 14 42 24 17 30 17
54 -7z"/>
<path d="M8603 4595 c-38 -16 -63 -60 -63 -113 0 -32 11 -53 56 -115 l56 -76
36 52 c19 28 43 63 54 76 40 52 13 151 -47 177 -42 17 -51 17 -92 -1z m96 -69
c7 -8 11 -30 9 -48 -4 -45 -47 -68 -83 -44 -32 21 -40 52 -21 81 19 29 75 35
95 11z"/>
<path d="M13085 4176 c-61 -27 -95 -85 -95 -161 0 -45 3 -51 114 -208 l48 -68
47 68 c26 37 63 90 82 116 28 40 34 57 33 96 -1 69 -31 121 -84 149 -50 25
-100 28 -145 8z m115 -106 c45 -45 13 -130 -50 -130 -39 0 -70 31 -70 72 0 66
76 102 120 58z"/>
<path d="M12078 4153 c-28 -18 -48 -52 -48 -82 0 -16 35 -74 78 -129 l19 -24
46 63 c33 45 47 72 47 95 0 70 -83 115 -142 77z m90 -84 c4 -21 -19 -49 -40
-49 -11 0 -48 38 -48 50 0 6 9 19 21 31 18 18 23 19 42 6 12 -8 24 -25 25 -38z"/>
<path d="M14980 4157 c-48 -16 -116 -86 -129 -133 -26 -93 -13 -130 90 -264
36 -47 74 -100 84 -118 23 -38 28 -39 42 -9 6 12 45 67 86 123 88 116 97 136
97 208 0 137 -140 237 -270 193z m125 -142 c19 -18 25 -35 25 -67 -1 -50 -15
-73 -55 -88 -58 -22 -115 20 -115 86 0 35 5 47 31 68 39 33 82 34 114 1z"/>
<path d="M2938 4040 c-31 -33 -38 -49 -39 -83 -2 -77 2 -92 45 -147 24 -30 56
-75 72 -99 l28 -43 16 23 c8 13 41 59 73 102 85 112 88 189 11 257 -31 27 -41
30 -101 30 -64 0 -67 -1 -105 -40z m154 -67 c24 -22 24 -77 -2 -103 -60 -60
-144 27 -94 98 18 27 69 30 96 5z"/>
<path d="M10859 3997 c-49 -32 -81 -100 -76 -158 3 -39 16 -63 73 -142 38 -52
74 -102 80 -112 9 -16 13 -14 33 21 13 21 48 72 80 113 54 71 56 76 56 136 0
52 -4 67 -28 98 -15 20 -41 44 -57 52 -44 23 -121 19 -161 -8z m140 -103 c39
-50 16 -108 -46 -120 -26 -5 -37 -1 -58 21 -22 21 -26 32 -21 58 14 69 85 92
125 41z"/>
<path d="M4872 3984 c-34 -23 -55 -72 -49 -114 3 -23 24 -63 57 -108 l53 -72
53 72 c44 61 53 80 54 116 0 77 -38 121 -105 122 -22 0 -51 -7 -63 -16z m96
-50 c43 -30 19 -114 -34 -114 -55 0 -77 75 -32 113 25 21 37 21 66 1z"/>
<path d="M3632 3880 c-46 -28 -72 -76 -72 -131 0 -38 7 -57 35 -95 19 -27 53
-75 76 -107 l40 -58 50 68 c103 142 104 144 104 193 0 53 -31 107 -76 134 -38
22 -117 20 -157 -4z m121 -87 c8 -10 18 -29 22 -43 8 -33 -27 -80 -59 -80 -35
0 -76 37 -76 68 0 57 77 94 113 55z"/>
<path d="M10239 3781 c-24 -24 -29 -38 -29 -76 0 -40 7 -57 52 -121 28 -41 55
-74 59 -74 5 0 14 10 20 23 7 12 30 46 52 75 37 49 39 56 35 104 -7 70 -38 98
-109 98 -42 0 -55 -5 -80 -29z m123 -38 c22 -20 24 -66 2 -87 -23 -24 -70 -20
-88 6 -21 30 -20 54 4 78 24 24 57 26 82 3z"/>
<path d="M1972 3753 c-42 -20 -69 -55 -82 -104 -14 -52 -1 -99 43 -152 18 -23
49 -66 69 -95 l35 -52 66 89 c81 111 89 125 89 167 0 116 -120 197 -220 147z
m110 -100 c22 -20 24 -85 4 -102 -47 -39 -116 -9 -116 49 0 58 69 92 112 53z"/>
<path d="M12453 3259 c-47 -13 -73 -52 -73 -108 0 -40 7 -54 49 -109 27 -34
51 -68 54 -75 2 -6 6 -10 9 -7 15 19 95 128 105 145 18 29 16 66 -7 102 -29
49 -80 68 -137 52z m79 -66 c37 -33 11 -103 -39 -103 -28 0 -63 33 -63 60 0
26 34 60 62 60 12 0 30 -7 40 -17z"/>
<path d="M3809 1730 c-69 -37 -109 -106 -109 -188 0 -49 21 -90 94 -186 36
-47 73 -100 82 -118 16 -31 17 -32 31 -13 8 11 41 56 74 100 104 140 112 153
117 205 6 68 -33 150 -90 188 -54 35 -146 41 -199 12z m145 -126 c37 -38 37
-104 0 -133 -46 -37 -105 -27 -130 21 -47 90 60 182 130 112z"/>
<path d="M7806 1727 c-22 -12 -53 -39 -70 -60 -28 -35 -31 -47 -34 -115 -4
-87 -7 -79 122 -254 35 -48 67 -93 70 -100 5 -11 7 -11 12 0 3 7 35 52 70 100
122 166 127 174 131 216 19 165 -161 293 -301 213z m150 -131 c67 -67 30 -156
-64 -156 -69 0 -106 87 -62 143 22 28 51 45 79 46 7 1 28 -14 47 -33z"/>
<path d="M8735 1734 c-75 -38 -124 -115 -125 -192 0 -57 17 -95 76 -167 27
-33 68 -88 91 -123 l41 -64 50 74 c27 40 64 91 82 113 50 63 70 109 70 165 0
123 -84 210 -202 210 -29 0 -66 -7 -83 -16z m143 -140 c33 -37 31 -105 -4
-133 -15 -12 -41 -21 -59 -21 -18 0 -44 9 -59 21 -64 51 -6 181 74 164 14 -3
35 -17 48 -31z"/>
<path d="M16355 1733 c-68 -35 -111 -98 -121 -176 -8 -54 16 -112 71 -177 21
-25 60 -78 87 -118 l50 -74 44 68 c24 37 59 85 78 108 63 78 76 106 76 173 0
73 -11 108 -48 146 -60 64 -168 87 -237 50z m134 -129 c71 -59 39 -163 -50
-164 -49 0 -89 37 -89 83 0 51 48 104 97 106 6 1 25 -11 42 -25z"/>
<path d="M17125 1689 c-51 -14 -111 -74 -129 -126 -32 -93 -20 -137 70 -259
33 -43 72 -100 88 -125 l30 -47 39 62 c22 33 63 90 93 126 62 77 74 104 74
168 -1 139 -133 240 -265 201z m120 -144 c33 -32 35 -98 3 -132 -29 -31 -92
-32 -125 -1 -36 34 -32 98 8 132 39 33 82 34 114 1z"/>
<path d="M6802 1614 c-92 -46 -142 -132 -142 -244 0 -69 13 -95 116 -231 45
-58 93 -126 108 -152 16 -26 31 -47 35 -47 3 0 26 32 50 71 25 39 73 108 109
153 87 109 106 153 100 231 -9 100 -67 187 -153 226 -62 28 -158 25 -223 -7z
m174 -150 c51 -34 67 -99 39 -154 -32 -63 -122 -76 -175 -25 -25 24 -30 36
-30 78 0 42 5 54 34 83 39 39 89 46 132 18z"/>
<path d="M4322 1539 c-50 -25 -79 -63 -98 -127 -23 -76 -11 -121 61 -217 34
-46 77 -106 94 -134 18 -28 36 -51 41 -51 4 0 23 26 43 58 19 31 60 88 91 127
86 108 95 191 29 287 -51 75 -171 101 -261 57z m137 -114 c53 -27 65 -110 21
-150 -10 -9 -36 -18 -57 -19 -95 -5 -130 123 -45 168 34 19 46 19 81 1z"/>
<path d="M15495 1537 c-77 -43 -118 -138 -101 -229 3 -18 29 -62 57 -98 27
-36 72 -97 98 -137 l48 -71 42 63 c22 35 62 88 87 119 25 31 51 71 59 91 30
70 13 169 -38 223 -60 64 -176 82 -252 39z m144 -112 c34 -17 41 -33 41 -86 0
-81 -88 -112 -149 -53 -45 42 -26 120 34 145 29 12 43 11 74 -6z"/>
</g>
</svg>
